# xmcd
#
# Track frame offsets: 
#        150
#        14037
#        28366
#        47163
#        67935
#        88897
#        102604
#        114201
#        129781
#        143283
#        161845
#
# Disc length: 2382 seconds
#
# Revision: 3
# Processed by: cddbd v1.5.2PL0 Copyright (c) Steve Scherf et al.
# Submitted via: ExactAudioCopy v0.95a5
#
DISCID=92094c0b
DTITLE=Scott, E.C. - Hard Act To Follow
DYEAR=1998
DGENRE=Blues
TTITLE0=Steppin' Out On A Saturday Night
TTITLE1=Tell Me About It
TTITLE2=Don't Touch Me
TTITLE3=Queensize Bed
TTITLE4=Lyin' And Cheatin'
TTITLE5=Hard Act To Follow
TTITLE6=Men Gossip Too
TTITLE7=Sweet Man Of Mine
TTITLE8=Another Night In Paradise
TTITLE9=If You're A Good Woman
TTITLE10=Missionary Man
EXTD=
EXTT0=
EXTT1=
EXTT2=
EXTT3=
EXTT4=
EXTT5=
EXTT6=
EXTT7=
EXTT8=
EXTT9=
EXTT10=
PLAYORDER=
